<svg xmlns="http://www.w3.org/2000/svg" width="393" height="393" viewBox="0 0 393 393">
  <defs>
    <style>
      .cls-1 {
        fill-rule: evenodd;
      }
    </style>
  </defs>
  <path id="Rectángulo_1" data-name="Rectángulo 1" class="cls-1" d="M201.36,69.36a15,15,0,0,1,21.214,0L325.1,171.891,303.891,193.1,201.36,90.574A15,15,0,0,1,201.36,69.36Z"/>
  <path id="Rectángulo_1_copia" data-name="Rectángulo 1 copia" class="cls-1" d="M201.413,323.617a14.972,14.972,0,0,1,0-21.171L328.7,175.13,349.867,196.3,222.58,323.617A14.966,14.966,0,0,1,201.413,323.617Z"/>
  <path id="Rectángulo_1_copia_3" data-name="Rectángulo 1 copia 3" class="cls-1" d="M68.014,196.515a12.5,12.5,0,0,1,12.5-12.5l207.5-.023,0,25-207.5.023A12.5,12.5,0,0,1,68.014,196.515Z"/>
</svg>
