<?xml version="1.0" encoding="UTF-8"?>
<!DOCTYPE svg PUBLIC "-//W3C//DTD SVG 1.1//EN" "http://www.w3.org/Graphics/SVG/1.1/DTD/svg11.dtd">
<svg xmlns="http://www.w3.org/2000/svg" version="1.1" width="140px" height="142px" style="shape-rendering:geometricPrecision; text-rendering:geometricPrecision; image-rendering:optimizeQuality; fill-rule:evenodd; clip-rule:evenodd" xmlns:xlink="http://www.w3.org/1999/xlink">
<g><path style="opacity:1" fill="#252a2f" d="M 75.5,28.5 C 74.5104,34.31 74.1771,40.31 74.5,46.5C 73.1879,48.4788 71.5212,50.1455 69.5,51.5C 67.5171,50.018 65.6837,48.3513 64,46.5C 63.6667,40.8333 63.3333,35.1667 63,29.5C 59.3019,33.5323 54.8019,34.5323 49.5,32.5C 50.7598,31.6184 51.9264,30.6184 53,29.5C 53.2401,27.1484 54.0735,25.1484 55.5,23.5C 60.422,19.9199 65.0887,15.9199 69.5,11.5C 71.6499,14.1506 73.9832,16.6506 76.5,19C 75.5336,21.099 74.2003,22.9324 72.5,24.5C 73.9095,25.5695 74.9095,26.9028 75.5,28.5 Z"/></g>
<g><path style="opacity:1" fill="#25292c" d="M 76.5,29.5 C 76.5,28.8333 76.1667,28.5 75.5,28.5C 74.9095,26.9028 73.9095,25.5695 72.5,24.5C 74.2003,22.9324 75.5336,21.099 76.5,19C 73.9832,16.6506 71.6499,14.1506 69.5,11.5C 65.0887,15.9199 60.422,19.9199 55.5,23.5C 59.8123,18.521 64.479,13.8544 69.5,9.5C 77.722,16.0387 84.3886,23.7054 89.5,32.5C 86.2156,33.657 82.8823,33.8236 79.5,33C 78.2899,31.9609 77.2899,30.7942 76.5,29.5 Z"/></g>
<g><path style="opacity:0.118" fill="#bac0c0" d="M 75.5,28.5 C 76.1667,28.5 76.5,28.8333 76.5,29.5C 75.8333,35.1667 75.1667,40.8333 74.5,46.5C 74.1771,40.31 74.5104,34.31 75.5,28.5 Z"/></g>
<g><path style="opacity:1" fill="#2a2c32" d="M 71.5,60.5 C 71.4148,61.9953 72.0815,62.9953 73.5,63.5C 74.1667,62.1667 74.8333,60.8333 75.5,59.5C 76.2826,61.2882 77.6159,62.2882 79.5,62.5C 76.3666,65.4687 73.3666,68.6353 70.5,72C 69.8333,72.6667 69.1667,72.6667 68.5,72C 60.5,64 52.5,56 44.5,48C 41.3408,47.9886 38.5074,47.1553 36,45.5C 35.2797,43.8876 35.4464,42.3876 36.5,41C 39.7024,39.5167 43.0357,39.1834 46.5,40C 54.1363,46.6352 61.4696,53.6352 68.5,61C 69.5768,61.4696 70.5768,61.3029 71.5,60.5 Z"/></g>
<g><path style="opacity:1" fill="#272b2f" d="M 79.5,62.5 C 77.6159,62.2882 76.2826,61.2882 75.5,59.5C 74.8333,60.8333 74.1667,62.1667 73.5,63.5C 72.0815,62.9953 71.4148,61.9953 71.5,60.5C 77.6306,53.8685 83.964,47.3685 90.5,41C 94.7809,38.891 98.9476,39.0577 103,41.5C 103.825,43.7008 103.325,45.5341 101.5,47C 99.1667,47.3333 96.8333,47.6667 94.5,48C 89.2742,52.7279 84.2742,57.5612 79.5,62.5 Z"/></g>
<g><path style="opacity:1" fill="#21252a" d="M 104.5,76.5 C 105.043,76.44 105.376,76.1067 105.5,75.5C 100.544,74.5059 95.544,74.1725 90.5,74.5C 93.6414,73.6787 96.9748,73.1787 100.5,73C 96.6495,72.5856 92.9828,71.7523 89.5,70.5C 89.33,69.1779 89.6634,68.0113 90.5,67C 89.5842,66.7216 88.9175,66.2216 88.5,65.5C 94.2055,65.8288 99.8722,65.4954 105.5,64.5C 105.376,63.8933 105.043,63.56 104.5,63.5C 103.355,59.6888 103.188,55.6888 104,51.5C 110.831,57.4979 117.331,63.8312 123.5,70.5C 116.848,76.6519 110.348,82.9852 104,89.5C 103.186,84.9796 103.353,80.6463 104.5,76.5 Z"/></g>
<g><path style="opacity:1" fill="#22262b" d="M 34.5,63.5 C 33.6618,63.8417 33.3284,64.5084 33.5,65.5C 30.952,69.8978 29.6187,74.3978 29.5,79C 29.6667,80.1667 29.8333,81.3333 30,82.5C 31.1628,80.7148 31.8295,78.7148 32,76.5C 32.3333,76.8333 32.6667,77.1667 33,77.5C 33.1829,80.3647 33.6829,83.0314 34.5,85.5C 34.6716,86.4916 34.3382,87.1583 33.5,87.5C 27.5204,81.8549 21.5204,76.1883 15.5,70.5C 21.5167,63.6497 28.0167,57.3164 35,51.5C 35.8119,55.6888 35.6453,59.6888 34.5,63.5 Z"/></g>
<g><path style="opacity:0.212" fill="#a0a6a6" d="M 34.5,63.5 C 39.8333,64.1667 45.1667,64.8333 50.5,65.5C 44.8333,65.5 39.1667,65.5 33.5,65.5C 33.3284,64.5084 33.6618,63.8417 34.5,63.5 Z"/></g>
<g><path style="opacity:0.212" fill="#a2a7a9" d="M 104.5,63.5 C 105.043,63.56 105.376,63.8933 105.5,64.5C 99.8722,65.4954 94.2055,65.8288 88.5,65.5C 88.1667,65.5 87.8333,65.5 87.5,65.5C 93.1667,64.8333 98.8333,64.1667 104.5,63.5 Z"/></g>
<g><path style="opacity:1" fill="#1c2025" d="M 33.5,65.5 C 39.1667,65.5 44.8333,65.5 50.5,65.5C 51.3629,66.9403 51.3629,68.2736 50.5,69.5C 51.325,70.3857 52.325,70.719 53.5,70.5C 53.7852,72.288 53.4519,73.9547 52.5,75.5C 51.4718,73.4197 50.1385,73.0864 48.5,74.5C 43.456,74.1725 38.456,74.5059 33.5,75.5C 33.6236,76.1067 33.9569,76.44 34.5,76.5C 34.5,79.5 34.5,82.5 34.5,85.5C 33.6829,83.0314 33.1829,80.3647 33,77.5C 32.6667,77.1667 32.3333,76.8333 32,76.5C 31.8295,78.7148 31.1628,80.7148 30,82.5C 29.8333,81.3333 29.6667,80.1667 29.5,79C 29.6187,74.3978 30.952,69.8978 33.5,65.5 Z"/></g>
<g><path style="opacity:1" fill="#32363b" d="M 87.5,65.5 C 87.8333,65.5 88.1667,65.5 88.5,65.5C 88.9175,66.2216 89.5842,66.7216 90.5,67C 89.6634,68.0113 89.33,69.1779 89.5,70.5C 92.9828,71.7523 96.6495,72.5856 100.5,73C 96.9748,73.1787 93.6414,73.6787 90.5,74.5C 90.5,74.8333 90.5,75.1667 90.5,75.5C 85.8698,80.6313 81.0365,85.6313 76,90.5C 75.8307,102.674 75.3307,114.674 74.5,126.5C 74.6665,114.495 74.4999,102.495 74,90.5C 72.561,92.0139 71.061,92.3473 69.5,91.5C 70.9529,89.5334 71.9529,87.3668 72.5,85C 71.1416,84.0656 69.8083,83.2323 68.5,82.5C 75.1114,77.2263 81.4447,71.5596 87.5,65.5 Z"/></g>
<g><path style="opacity:1" fill="#272b30" d="M 50.5,65.5 C 57.11,70.4412 63.11,76.1078 68.5,82.5C 69.8083,83.2323 71.1416,84.0656 72.5,85C 71.9529,87.3668 70.9529,89.5334 69.5,91.5C 71.061,92.3473 72.561,92.0139 74,90.5C 74.4999,102.495 74.6665,114.495 74.5,126.5C 73.1879,128.479 71.5212,130.145 69.5,131.5C 67.5171,130.018 65.6837,128.351 64,126.5C 63.6667,114.5 63.3333,102.5 63,90.5C 57.9635,85.6313 53.1302,80.6313 48.5,75.5C 48.5,75.1667 48.5,74.8333 48.5,74.5C 50.1385,73.0864 51.4718,73.4197 52.5,75.5C 53.4519,73.9547 53.7852,72.288 53.5,70.5C 52.325,70.719 51.325,70.3857 50.5,69.5C 51.3629,68.2736 51.3629,66.9403 50.5,65.5 Z"/></g>
<g><path style="opacity:0.248" fill="#999ea0" d="M 48.5,74.5 C 48.5,74.8333 48.5,75.1667 48.5,75.5C 43.6367,75.1805 38.97,75.5139 34.5,76.5C 33.9569,76.44 33.6236,76.1067 33.5,75.5C 38.456,74.5059 43.456,74.1725 48.5,74.5 Z"/></g>
<g><path style="opacity:0.267" fill="#9ea5a6" d="M 90.5,75.5 C 90.5,75.1667 90.5,74.8333 90.5,74.5C 95.544,74.1725 100.544,74.5059 105.5,75.5C 105.376,76.1067 105.043,76.44 104.5,76.5C 100.03,75.5139 95.3633,75.1805 90.5,75.5 Z"/></g>
<g><path style="opacity:0.561" fill="#4c5154" d="M 34.5,76.5 C 35.647,80.6463 35.8136,84.9796 35,89.5C 34.2828,88.9558 33.7828,88.2891 33.5,87.5C 34.3382,87.1583 34.6716,86.4916 34.5,85.5C 34.5,82.5 34.5,79.5 34.5,76.5 Z"/></g>
</svg>
