<?xml version="1.0" encoding="UTF-8"?>
<!DOCTYPE svg PUBLIC "-//W3C//DTD SVG 1.1//EN" "http://www.w3.org/Graphics/SVG/1.1/DTD/svg11.dtd">
<svg xmlns="http://www.w3.org/2000/svg" version="1.1" width="2442px" height="650px" style="shape-rendering:geometricPrecision; text-rendering:geometricPrecision; image-rendering:optimizeQuality; fill-rule:evenodd; clip-rule:evenodd" xmlns:xlink="http://www.w3.org/1999/xlink">
<g><path style="opacity:0.143" fill="#060606" d="M 124.5,105.5 C 154.407,105.171 184.24,105.505 214,106.5C 214.333,192.167 214.667,277.833 215,363.5C 222.356,372.413 230.023,372.746 238,364.5C 238.333,278.5 238.667,192.5 239,106.5C 254.094,105.837 269.261,105.504 284.5,105.5C 299.887,105.508 315.054,106.175 330,107.5C 330.667,205.167 330.667,302.833 330,400.5C 314.862,416.638 299.362,432.471 283.5,448C 264.536,449.127 245.536,449.627 226.5,449.5C 207.464,449.627 188.464,449.127 169.5,448C 154.333,432.833 139.167,417.667 124,402.5C 122.847,353.031 122.347,303.531 122.5,254C 122.667,206.5 122.833,159 123,111.5C 123.315,109.414 123.815,107.414 124.5,105.5 Z"/></g>
<g><path style="opacity:0.146" fill="#040404" d="M 1123.5,105.5 C 1165.74,105.17 1207.91,105.503 1250,106.5C 1256.61,170.846 1263.27,235.179 1270,299.5C 1276.27,235.16 1282.6,170.827 1289,106.5C 1331.33,105.167 1373.67,105.167 1416,106.5C 1416.67,220.167 1416.67,333.833 1416,447.5C 1387.24,448.495 1358.41,448.829 1329.5,448.5C 1328.68,377.862 1328.18,307.195 1328,236.5C 1322.33,294.205 1316.33,351.872 1310,409.5C 1308.27,410.249 1306.43,410.749 1304.5,411C 1280.83,411.667 1257.17,411.667 1233.5,411C 1231.27,410.879 1229.44,410.046 1228,408.5C 1222,349.833 1216,291.167 1210,232.5C 1209.67,304.167 1209.33,375.833 1209,447.5C 1180.33,448.833 1151.67,448.833 1123,447.5C 1121.84,390.703 1121.34,333.869 1121.5,277C 1121.67,221.833 1121.83,166.667 1122,111.5C 1122.32,109.414 1122.82,107.414 1123.5,105.5 Z"/></g>
<g><path style="opacity:1" fill="#fefefe" d="M 127.5,109.5 C 155.167,109.5 182.833,109.5 210.5,109.5C 210.167,195.503 210.5,281.503 211.5,367.5C 213.833,369.167 215.833,371.167 217.5,373.5C 223.472,374.664 229.472,374.83 235.5,374C 237.667,371.833 239.833,369.667 242,367.5C 242.5,281.501 242.667,195.501 242.5,109.5C 270.5,109.5 298.5,109.5 326.5,109.5C 326.667,205.834 326.5,302.167 326,398.5C 310.833,413.667 295.667,428.833 280.5,444C 244.5,444.667 208.5,444.667 172.5,444C 157.667,429.167 142.833,414.333 128,399.5C 127.5,302.834 127.333,206.167 127.5,109.5 Z"/></g>
<g><path style="opacity:1" fill="#fefefe" d="M 1333.5,444.5 C 1333.5,372.167 1333.5,299.833 1333.5,227.5C 1330.29,227.19 1327.29,227.523 1324.5,228.5C 1318.63,287.849 1312.63,347.183 1306.5,406.5C 1281.5,406.5 1256.5,406.5 1231.5,406.5C 1225.5,346.861 1219.84,287.194 1214.5,227.5C 1211.5,227.5 1208.5,227.5 1205.5,227.5C 1205.5,299.833 1205.5,372.167 1205.5,444.5C 1179.17,444.5 1152.83,444.5 1126.5,444.5C 1126.5,332.833 1126.5,221.167 1126.5,109.5C 1166.5,109.5 1206.5,109.5 1246.5,109.5C 1253.23,174.786 1259.56,240.12 1265.5,305.5C 1268.17,305.5 1270.83,305.5 1273.5,305.5C 1279.97,240.181 1286.3,174.848 1292.5,109.5C 1332.5,109.5 1372.5,109.5 1412.5,109.5C 1412.5,221.167 1412.5,332.833 1412.5,444.5C 1386.17,444.5 1359.83,444.5 1333.5,444.5 Z"/></g>
<g><path style="opacity:0.148" fill="#000000" d="M 1843.5,134.5 C 1871.5,134.5 1899.5,134.5 1927.5,134.5C 1928.46,153.133 1928.79,171.799 1928.5,190.5C 1942.17,190.333 1955.84,190.5 1969.5,191C 1970.16,202.259 1970.49,213.593 1970.5,225C 1970.49,236.407 1970.16,247.741 1969.5,259C 1955.88,260.406 1942.22,260.906 1928.5,260.5C 1928.33,298.501 1928.5,336.501 1929,374.5C 1943.44,375.159 1957.94,375.826 1972.5,376.5C 1973.16,388.289 1973.49,400.123 1973.5,412C 1973.49,423.877 1973.16,435.711 1972.5,447.5C 1942.51,448.667 1912.51,448.833 1882.5,448C 1868.97,434.805 1855.8,421.305 1843,407.5C 1842.5,358.501 1842.33,309.501 1842.5,260.5C 1834.83,260.666 1827.16,260.5 1819.5,260C 1817.74,259.798 1816.08,259.298 1814.5,258.5C 1813.17,236.167 1813.17,213.833 1814.5,191.5C 1823.81,190.502 1833.14,190.168 1842.5,190.5C 1842.18,171.757 1842.51,153.09 1843.5,134.5 Z"/></g>
<g><path style="opacity:1" fill="#fdfdfd" d="M 1966.5,255.5 C 1952.17,255.5 1937.83,255.5 1923.5,255.5C 1923.17,296.003 1923.5,336.337 1924.5,376.5C 1924.95,377.458 1925.62,378.292 1926.5,379C 1940.83,379.5 1955.16,379.667 1969.5,379.5C 1969.5,401.167 1969.5,422.833 1969.5,444.5C 1941.5,444.667 1913.5,444.5 1885.5,444C 1872.67,431.167 1859.83,418.333 1847,405.5C 1846.5,355.501 1846.33,305.501 1846.5,255.5C 1836.83,255.5 1827.17,255.5 1817.5,255.5C 1817.5,235.167 1817.5,214.833 1817.5,194.5C 1827.17,194.5 1836.83,194.5 1846.5,194.5C 1846.5,175.833 1846.5,157.167 1846.5,138.5C 1872.5,138.5 1898.5,138.5 1924.5,138.5C 1924.5,157.167 1924.5,175.833 1924.5,194.5C 1938.5,194.5 1952.5,194.5 1966.5,194.5C 1966.5,214.833 1966.5,235.167 1966.5,255.5 Z"/></g>
<g><path style="opacity:0.146" fill="#010101" d="M 361.5,190.5 C 384.169,190.333 406.836,190.5 429.5,191C 430.3,195.08 430.8,199.247 431,203.5C 435.215,198.985 439.715,194.818 444.5,191C 466.833,190.333 489.167,190.333 511.5,191C 523.667,203.167 535.833,215.333 548,227.5C 548.667,288.833 548.667,350.167 548,411.5C 535.833,423.667 523.667,435.833 511.5,448C 489.873,449.432 468.206,449.932 446.5,449.5C 446.667,480.835 446.5,512.168 446,543.5C 417.907,544.495 389.741,544.828 361.5,544.5C 360.167,426.5 360.167,308.5 361.5,190.5 Z M 449.5,260.5 C 453.514,260.334 457.514,260.501 461.5,261C 462,261.5 462.5,262 463,262.5C 463.667,300.5 463.667,338.5 463,376.5C 462.167,377.333 461.333,378.167 460.5,379C 455.845,379.499 451.179,379.666 446.5,379.5C 446.333,340.832 446.5,302.165 447,263.5C 448.045,262.627 448.878,261.627 449.5,260.5 Z"/></g>
<g><path style="opacity:0.146" fill="#010101" d="M 569.5,190.5 C 592.169,190.333 614.836,190.5 637.5,191C 638.3,195.08 638.8,199.247 639,203.5C 643.215,198.985 647.715,194.818 652.5,191C 674.833,190.333 697.167,190.333 719.5,191C 731.667,203.167 743.833,215.333 756,227.5C 756.667,288.833 756.667,350.167 756,411.5C 743.833,423.667 731.667,435.833 719.5,448C 697.873,449.432 676.206,449.932 654.5,449.5C 654.667,480.835 654.5,512.168 654,543.5C 625.907,544.495 597.741,544.828 569.5,544.5C 568.167,426.5 568.167,308.5 569.5,190.5 Z M 657.5,260.5 C 661.514,260.334 665.514,260.501 669.5,261C 670,261.5 670.5,262 671,262.5C 671.667,300.5 671.667,338.5 671,376.5C 670.167,377.333 669.333,378.167 668.5,379C 663.845,379.499 659.179,379.666 654.5,379.5C 654.333,340.832 654.5,302.165 655,263.5C 656.045,262.627 656.878,261.627 657.5,260.5 Z"/></g>
<g><path style="opacity:0.14" fill="#070707" d="M 812.5,190.5 C 849.168,190.333 885.835,190.5 922.5,191C 935,203.5 947.5,216 960,228.5C 960.667,270.833 960.667,313.167 960,355.5C 958.266,356.249 956.433,356.749 954.5,357C 923.168,357.5 891.835,357.667 860.5,357.5C 860.334,365.507 860.5,373.507 861,381.5C 861.5,382 862,382.5 862.5,383C 891.831,383.5 921.165,383.667 950.5,383.5C 951.833,405.167 951.833,426.833 950.5,448.5C 927.349,449.135 904.183,449.468 881,449.5C 858.127,449.64 835.293,449.14 812.5,448C 800,435.5 787.5,423 775,410.5C 774.333,349.833 774.333,289.167 775,228.5C 787.702,215.965 800.202,203.298 812.5,190.5 Z M 861.5,255.5 C 865.846,255.334 870.179,255.501 874.5,256C 875,256.5 875.5,257 876,257.5C 876.5,272.496 876.667,287.496 876.5,302.5C 871.167,302.5 865.833,302.5 860.5,302.5C 860.183,286.756 860.516,271.089 861.5,255.5 Z"/></g>
<g><path style="opacity:0.141" fill="#020202" d="M 979.5,190.5 C 1002.17,190.333 1024.84,190.5 1047.5,191C 1048.3,195.08 1048.8,199.247 1049,203.5C 1053.2,198.966 1057.7,194.799 1062.5,191C 1078.17,190.333 1093.83,190.333 1109.5,191C 1110.16,202.926 1110.5,214.926 1110.5,227C 1110.5,239.074 1110.16,251.074 1109.5,263C 1095.21,264.245 1080.88,264.911 1066.5,265C 1066,265.5 1065.5,266 1065,266.5C 1064.67,326.833 1064.33,387.167 1064,447.5C 1041.23,448.289 1018.4,448.956 995.5,449.5C 990.146,449.348 984.813,449.014 979.5,448.5C 978.167,362.5 978.167,276.5 979.5,190.5 Z"/></g>
<g><path style="opacity:0.142" fill="#060606" d="M 1482.5,190.5 C 1520.17,190.333 1557.83,190.5 1595.5,191C 1607.67,203.167 1619.83,215.333 1632,227.5C 1633.64,286.802 1633.98,346.135 1633,405.5C 1632.67,407.5 1632.33,409.5 1632,411.5C 1619.83,423.667 1607.67,435.833 1595.5,448C 1557.83,448.667 1520.17,448.667 1482.5,448C 1470,435.5 1457.5,423 1445,410.5C 1444.33,349.833 1444.33,289.167 1445,228.5C 1457.7,215.965 1470.2,203.298 1482.5,190.5 Z M 1531.5,260.5 C 1536.18,260.334 1540.85,260.501 1545.5,261C 1546,261.5 1546.5,262 1547,262.5C 1547.67,300.5 1547.67,338.5 1547,376.5C 1546.17,377.333 1545.33,378.167 1544.5,379C 1540.5,379.667 1536.5,379.667 1532.5,379C 1532,378.5 1531.5,378 1531,377.5C 1530.17,338.429 1530.34,299.429 1531.5,260.5 Z"/></g>
<g><path style="opacity:0.15" fill="#050505" d="M 1681.5,190.5 C 1721.5,190.5 1761.5,190.5 1801.5,190.5C 1802.83,212.833 1802.83,235.167 1801.5,257.5C 1779.19,258.279 1756.85,258.779 1734.5,259C 1733.35,266.086 1733.19,273.253 1734,280.5C 1734.83,281.333 1735.67,282.167 1736.5,283C 1748.17,283.333 1759.83,283.667 1771.5,284C 1783.67,296.167 1795.83,308.333 1808,320.5C 1808.67,352.167 1808.67,383.833 1808,415.5C 1797.17,426.333 1786.33,437.167 1775.5,448C 1734.17,448.667 1692.83,448.667 1651.5,448C 1650.75,446.266 1650.25,444.433 1650,442.5C 1649.33,424.167 1649.33,405.833 1650,387.5C 1650.25,385.567 1650.75,383.734 1651.5,382C 1674.83,381.667 1698.17,381.333 1721.5,381C 1722,380.5 1722.5,380 1723,379.5C 1723.67,370.833 1723.67,362.167 1723,353.5C 1722.5,353 1722,352.5 1721.5,352C 1709.13,351.87 1696.79,351.203 1684.5,350C 1671.97,337.804 1659.8,325.304 1648,312.5C 1647.33,283.167 1647.33,253.833 1648,224.5C 1658.7,212.634 1669.87,201.301 1681.5,190.5 Z"/></g>
<g><path style="opacity:0.152" fill="#040404" d="M 2019.5,190.5 C 2056.17,190.333 2092.83,190.5 2129.5,191C 2142,203.5 2154.5,216 2167,228.5C 2167.67,270.833 2167.67,313.167 2167,355.5C 2165.27,356.249 2163.43,356.749 2161.5,357C 2130.17,357.5 2098.84,357.667 2067.5,357.5C 2067.33,365.507 2067.5,373.507 2068,381.5C 2068.5,382 2069,382.5 2069.5,383C 2098.83,383.5 2128.16,383.667 2157.5,383.5C 2158.83,405.167 2158.83,426.833 2157.5,448.5C 2111.5,448.667 2065.5,448.5 2019.5,448C 2007,435.5 1994.5,423 1982,410.5C 1981.33,349.833 1981.33,289.167 1982,228.5C 1994.7,215.965 2007.2,203.298 2019.5,190.5 Z M 2068.5,255.5 C 2072.85,255.334 2077.18,255.501 2081.5,256C 2082,256.5 2082.5,257 2083,257.5C 2083.5,272.496 2083.67,287.496 2083.5,302.5C 2078.17,302.5 2072.83,302.5 2067.5,302.5C 2067.18,286.756 2067.52,271.089 2068.5,255.5 Z"/></g>
<g><path style="opacity:0.144" fill="#010101" d="M 2186.5,190.5 C 2209.17,190.333 2231.84,190.5 2254.5,191C 2255.3,195.08 2255.8,199.247 2256,203.5C 2260.2,198.966 2264.7,194.799 2269.5,191C 2285.17,190.333 2300.83,190.333 2316.5,191C 2317.16,202.926 2317.5,214.926 2317.5,227C 2317.5,239.074 2317.16,251.074 2316.5,263C 2302.21,264.245 2287.88,264.911 2273.5,265C 2273,265.5 2272.5,266 2272,266.5C 2271.67,326.833 2271.33,387.167 2271,447.5C 2242.91,448.495 2214.74,448.828 2186.5,448.5C 2185.17,362.5 2185.17,276.5 2186.5,190.5 Z"/></g>
<g><path style="opacity:1" fill="#fdfdfd" d="M 364.5,194.5 C 385.167,194.5 405.833,194.5 426.5,194.5C 426.5,199.5 426.5,204.5 426.5,209.5C 428.527,209.662 430.527,209.495 432.5,209C 437.309,204.101 442.309,199.435 447.5,195C 467.833,194.333 488.167,194.333 508.5,195C 520.333,206.833 532.167,218.667 544,230.5C 544.667,289.833 544.667,349.167 544,408.5C 532.167,420.333 520.333,432.167 508.5,444C 486.503,444.5 464.503,444.667 442.5,444.5C 442.5,476.5 442.5,508.5 442.5,540.5C 416.5,540.5 390.5,540.5 364.5,540.5C 364.5,425.167 364.5,309.833 364.5,194.5 Z M 449.5,260.5 C 448.878,261.627 448.045,262.627 447,263.5C 446.5,302.165 446.333,340.832 446.5,379.5C 451.179,379.666 455.845,379.499 460.5,379C 461.333,378.167 462.167,377.333 463,376.5C 463.667,338.5 463.667,300.5 463,262.5C 462.5,262 462,261.5 461.5,261C 457.514,260.501 453.514,260.334 449.5,260.5 Z"/></g>
<g><path style="opacity:1" fill="#fdfdfd" d="M 572.5,194.5 C 593.167,194.5 613.833,194.5 634.5,194.5C 634.5,199.5 634.5,204.5 634.5,209.5C 636.527,209.662 638.527,209.495 640.5,209C 645.309,204.101 650.309,199.435 655.5,195C 675.833,194.333 696.167,194.333 716.5,195C 728.333,206.833 740.167,218.667 752,230.5C 752.667,289.833 752.667,349.167 752,408.5C 740.167,420.333 728.333,432.167 716.5,444C 694.503,444.5 672.503,444.667 650.5,444.5C 650.5,476.5 650.5,508.5 650.5,540.5C 624.5,540.5 598.5,540.5 572.5,540.5C 572.5,425.167 572.5,309.833 572.5,194.5 Z M 657.5,260.5 C 656.878,261.627 656.045,262.627 655,263.5C 654.5,302.165 654.333,340.832 654.5,379.5C 659.179,379.666 663.845,379.499 668.5,379C 669.333,378.167 670.167,377.333 671,376.5C 671.667,338.5 671.667,300.5 671,262.5C 670.5,262 670,261.5 669.5,261C 665.514,260.501 661.514,260.334 657.5,260.5 Z"/></g>
<g><path style="opacity:1" fill="#fefefe" d="M 956.5,352.5 C 922.833,352.5 889.167,352.5 855.5,352.5C 855.172,363.014 855.506,373.347 856.5,383.5C 857.29,384.794 858.29,385.961 859.5,387C 888.498,387.5 917.498,387.667 946.5,387.5C 946.5,406.5 946.5,425.5 946.5,444.5C 902.832,444.667 859.165,444.5 815.5,444C 803.333,431.833 791.167,419.667 779,407.5C 778.333,348.833 778.333,290.167 779,231.5C 791.167,219.333 803.333,207.167 815.5,195C 850.167,194.333 884.833,194.333 919.5,195C 931.667,207.167 943.833,219.333 956,231.5C 956.5,271.832 956.667,312.165 956.5,352.5 Z M 861.5,255.5 C 860.516,271.089 860.183,286.756 860.5,302.5C 865.833,302.5 871.167,302.5 876.5,302.5C 876.667,287.496 876.5,272.496 876,257.5C 875.5,257 875,256.5 874.5,256C 870.179,255.501 865.846,255.334 861.5,255.5 Z"/></g>
<g><path style="opacity:1" fill="#fcfcfc" d="M 982.5,194.5 C 1003.17,194.5 1023.83,194.5 1044.5,194.5C 1044.5,199.5 1044.5,204.5 1044.5,209.5C 1047.56,209.856 1050.23,209.023 1052.5,207C 1056.53,202.632 1060.87,198.632 1065.5,195C 1079.16,194.5 1092.83,194.333 1106.5,194.5C 1106.5,216.167 1106.5,237.833 1106.5,259.5C 1092.5,259.333 1078.5,259.5 1064.5,260C 1063.33,261.167 1062.17,262.333 1061,263.5C 1060.5,323.832 1060.33,384.166 1060.5,444.5C 1034.5,444.5 1008.5,444.5 982.5,444.5C 982.5,361.167 982.5,277.833 982.5,194.5 Z"/></g>
<g><path style="opacity:1" fill="#fefefe" d="M 1485.5,194.5 C 1521.17,194.333 1556.83,194.5 1592.5,195C 1604.33,206.833 1616.17,218.667 1628,230.5C 1628.67,289.833 1628.67,349.167 1628,408.5C 1616.17,420.333 1604.33,432.167 1592.5,444C 1556.83,444.667 1521.17,444.667 1485.5,444C 1473.33,431.833 1461.17,419.667 1449,407.5C 1448.33,348.833 1448.33,290.167 1449,231.5C 1461.37,219.298 1473.54,206.965 1485.5,194.5 Z M 1531.5,260.5 C 1530.34,299.429 1530.17,338.429 1531,377.5C 1531.5,378 1532,378.5 1532.5,379C 1536.5,379.667 1540.5,379.667 1544.5,379C 1545.33,378.167 1546.17,377.333 1547,376.5C 1547.67,338.5 1547.67,300.5 1547,262.5C 1546.5,262 1546,261.5 1545.5,261C 1540.85,260.501 1536.18,260.334 1531.5,260.5 Z"/></g>
<g><path style="opacity:1" fill="#fefefe" d="M 1684.5,194.5 C 1722.5,194.5 1760.5,194.5 1798.5,194.5C 1798.5,214.167 1798.5,233.833 1798.5,253.5C 1776.16,253.167 1753.82,253.5 1731.5,254.5C 1731.19,255.308 1730.69,255.975 1730,256.5C 1729.33,265.833 1729.33,275.167 1730,284.5C 1730.83,285.333 1731.67,286.167 1732.5,287C 1744.5,287.333 1756.5,287.667 1768.5,288C 1780.33,299.833 1792.17,311.667 1804,323.5C 1804.67,353.167 1804.67,382.833 1804,412.5C 1793.5,423 1783,433.5 1772.5,444C 1733.17,444.5 1693.83,444.667 1654.5,444.5C 1654.5,424.833 1654.5,405.167 1654.5,385.5C 1677.84,385.667 1701.17,385.5 1724.5,385C 1725.33,384.167 1726.17,383.333 1727,382.5C 1727.67,371.833 1727.67,361.167 1727,350.5C 1725.83,349.333 1724.67,348.167 1723.5,347C 1711.5,346.667 1699.5,346.333 1687.5,346C 1675.67,334.167 1663.83,322.333 1652,310.5C 1651.17,282.494 1651.33,254.494 1652.5,226.5C 1663.52,216.146 1674.19,205.479 1684.5,194.5 Z"/></g>
<g><path style="opacity:1" fill="#fefefe" d="M 2163.5,352.5 C 2129.83,352.5 2096.17,352.5 2062.5,352.5C 2062.17,363.014 2062.51,373.347 2063.5,383.5C 2064.29,384.794 2065.29,385.961 2066.5,387C 2095.5,387.5 2124.5,387.667 2153.5,387.5C 2153.5,406.5 2153.5,425.5 2153.5,444.5C 2109.83,444.667 2066.17,444.5 2022.5,444C 2010.33,431.833 1998.17,419.667 1986,407.5C 1985.33,348.833 1985.33,290.167 1986,231.5C 1998.17,219.333 2010.33,207.167 2022.5,195C 2057.17,194.333 2091.83,194.333 2126.5,195C 2138.67,207.167 2150.83,219.333 2163,231.5C 2163.5,271.832 2163.67,312.165 2163.5,352.5 Z M 2068.5,255.5 C 2067.52,271.089 2067.18,286.756 2067.5,302.5C 2072.83,302.5 2078.17,302.5 2083.5,302.5C 2083.67,287.496 2083.5,272.496 2083,257.5C 2082.5,257 2082,256.5 2081.5,256C 2077.18,255.501 2072.85,255.334 2068.5,255.5 Z"/></g>
<g><path style="opacity:1" fill="#fcfcfc" d="M 2189.5,194.5 C 2210.17,194.5 2230.83,194.5 2251.5,194.5C 2251.5,199.5 2251.5,204.5 2251.5,209.5C 2254.56,209.856 2257.23,209.023 2259.5,207C 2263.53,202.632 2267.87,198.632 2272.5,195C 2286.16,194.5 2299.83,194.333 2313.5,194.5C 2313.5,216.167 2313.5,237.833 2313.5,259.5C 2299.5,259.333 2285.5,259.5 2271.5,260C 2270.33,261.167 2269.17,262.333 2268,263.5C 2267.5,323.832 2267.33,384.166 2267.5,444.5C 2241.5,444.5 2215.5,444.5 2189.5,444.5C 2189.5,361.167 2189.5,277.833 2189.5,194.5 Z"/></g>
<g><path style="opacity:0.494" fill="#666666" d="M 1324.5,228.5 C 1327.29,227.523 1330.29,227.19 1333.5,227.5C 1333.5,299.833 1333.5,372.167 1333.5,444.5C 1332.5,372.669 1332.17,300.669 1332.5,228.5C 1329.83,228.5 1327.17,228.5 1324.5,228.5 Z"/></g>
<g><path style="opacity:0.152" fill="#0b0b0b" d="M 859.5,250.5 C 865.509,250.334 871.509,250.501 877.5,251C 878.333,251.833 879.167,252.667 880,253.5C 880.5,271.164 880.667,288.83 880.5,306.5C 872.167,306.5 863.833,306.5 855.5,306.5C 855.333,289.163 855.5,271.83 856,254.5C 857.376,253.295 858.542,251.962 859.5,250.5 Z M 861.5,255.5 C 860.516,271.089 860.183,286.756 860.5,302.5C 865.833,302.5 871.167,302.5 876.5,302.5C 876.667,287.496 876.5,272.496 876,257.5C 875.5,257 875,256.5 874.5,256C 870.179,255.501 865.846,255.334 861.5,255.5 Z"/></g>
<g><path style="opacity:0.152" fill="#0b0b0b" d="M 2066.5,250.5 C 2072.51,250.334 2078.51,250.501 2084.5,251C 2085.33,251.833 2086.17,252.667 2087,253.5C 2087.5,271.164 2087.67,288.83 2087.5,306.5C 2079.17,306.5 2070.83,306.5 2062.5,306.5C 2062.33,289.163 2062.5,271.83 2063,254.5C 2064.38,253.295 2065.54,251.962 2066.5,250.5 Z M 2068.5,255.5 C 2067.52,271.089 2067.18,286.756 2067.5,302.5C 2072.83,302.5 2078.17,302.5 2083.5,302.5C 2083.67,287.496 2083.5,272.496 2083,257.5C 2082.5,257 2082,256.5 2081.5,256C 2077.18,255.501 2072.85,255.334 2068.5,255.5 Z"/></g>
<g><path style="opacity:0.165" fill="#010101" d="M 447.5,255.5 C 452.844,255.334 458.177,255.501 463.5,256C 464.667,257.167 465.833,258.333 467,259.5C 467.667,299.5 467.667,339.5 467,379.5C 465.833,380.667 464.667,381.833 463.5,383C 456.508,383.5 449.508,383.666 442.5,383.5C 442.167,342.161 442.5,300.828 443.5,259.5C 445.188,258.479 446.521,257.145 447.5,255.5 Z M 449.5,260.5 C 448.878,261.627 448.045,262.627 447,263.5C 446.5,302.165 446.333,340.832 446.5,379.5C 451.179,379.666 455.845,379.499 460.5,379C 461.333,378.167 462.167,377.333 463,376.5C 463.667,338.5 463.667,300.5 463,262.5C 462.5,262 462,261.5 461.5,261C 457.514,260.501 453.514,260.334 449.5,260.5 Z"/></g>
<g><path style="opacity:0.165" fill="#010101" d="M 655.5,255.5 C 660.844,255.334 666.177,255.501 671.5,256C 672.667,257.167 673.833,258.333 675,259.5C 675.667,299.5 675.667,339.5 675,379.5C 673.833,380.667 672.667,381.833 671.5,383C 664.508,383.5 657.508,383.666 650.5,383.5C 650.167,342.161 650.5,300.828 651.5,259.5C 653.188,258.479 654.521,257.145 655.5,255.5 Z M 657.5,260.5 C 656.878,261.627 656.045,262.627 655,263.5C 654.5,302.165 654.333,340.832 654.5,379.5C 659.179,379.666 663.845,379.499 668.5,379C 669.333,378.167 670.167,377.333 671,376.5C 671.667,338.5 671.667,300.5 671,262.5C 670.5,262 670,261.5 669.5,261C 665.514,260.501 661.514,260.334 657.5,260.5 Z"/></g>
<g><path style="opacity:0.143" fill="#0b0b0b" d="M 1529.5,255.5 C 1535.51,255.334 1541.51,255.501 1547.5,256C 1548.67,257.167 1549.83,258.333 1551,259.5C 1551.67,299.5 1551.67,339.5 1551,379.5C 1549.83,380.667 1548.67,381.833 1547.5,383C 1541.5,383.667 1535.5,383.667 1529.5,383C 1528.33,381.833 1527.17,380.667 1526,379.5C 1525.33,339.5 1525.33,299.5 1526,259.5C 1527.38,258.295 1528.54,256.962 1529.5,255.5 Z M 1531.5,260.5 C 1530.34,299.429 1530.17,338.429 1531,377.5C 1531.5,378 1532,378.5 1532.5,379C 1536.5,379.667 1540.5,379.667 1544.5,379C 1545.33,378.167 1546.17,377.333 1547,376.5C 1547.67,338.5 1547.67,300.5 1547,262.5C 1546.5,262 1546,261.5 1545.5,261C 1540.85,260.501 1536.18,260.334 1531.5,260.5 Z"/></g>
<g><path style="opacity:0.545" fill="#727272" d="M 1966.5,255.5 C 1952.68,256.496 1938.68,256.829 1924.5,256.5C 1924.5,296.5 1924.5,336.5 1924.5,376.5C 1923.5,336.337 1923.17,296.003 1923.5,255.5C 1937.83,255.5 1952.17,255.5 1966.5,255.5 Z"/></g>
<g><path style="opacity:0.447" fill="#444444" d="M 956.5,352.5 C 923.338,353.498 890.004,353.832 856.5,353.5C 856.5,363.5 856.5,373.5 856.5,383.5C 855.506,373.347 855.172,363.014 855.5,352.5C 889.167,352.5 922.833,352.5 956.5,352.5 Z"/></g>
<g><path style="opacity:0.447" fill="#444444" d="M 2163.5,352.5 C 2130.34,353.498 2097,353.832 2063.5,353.5C 2063.5,363.5 2063.5,373.5 2063.5,383.5C 2062.51,373.347 2062.17,363.014 2062.5,352.5C 2096.17,352.5 2129.83,352.5 2163.5,352.5 Z"/></g>
</svg>
